<?xml version="1.0" encoding="UTF-8"?>
<svg version="1.1" viewBox="0 0 32 22" xmlns="http://www.w3.org/2000/svg"><g fill="none" fill-rule="evenodd"><g transform="translate(-86 -10)"><g transform="translate(86 10)"><path d="m32 20c0 1.1-0.9 2-2 2h-28c-1.1 0-2-0.9-2-2v-18c0-1.1 0.9-2 2-2h28c1.1 0 2 0.9 2 2v18z" fill="#00ADEF"/><path d="m13.4 11.7l1.9-4.7h2.6v7h-1.6v-5.5l-2.3 5.5h-1.3l-2.3-5.5v5.5h-3.2l-0.6-1.6h-3.3l-0.6 1.6h-1.7l2.8-7h2.3l2.7 6.6v-6.6h2.6l2 4.7zm-9.5-0.7h2.1l-1-2.8-1.1 2.8zm27.1 2.4v0.6h-1.5l-1.9-2.3-2 2.3h-6.2v-7h6.3l1.9 2.3 2-2.3h1.4v0.8l-2.4 2.8 2.4 2.8zm-6.2-0.9l1.7-2-1.7-2h-3.9v1.2h3.4v1.4h-3.4v1.4h3.9z" fill="#fff"/></g></g></g></svg>
