<?xml version="1.0" encoding="UTF-8"?>
<svg version="1.1" viewBox="0 0 32 22" xmlns="http://www.w3.org/2000/svg"><g fill="none" fill-rule="evenodd"><g transform="translate(-124 -10)"><g transform="translate(124 10)"><path d="m32 20c0 1.1-0.9 2-2 2h-28c-1.1 0-2-0.9-2-2v-18c0-1.1 0.9-2 2-2h28c1.1 0 2 0.9 2 2v18z" fill="#2283CB"/><path d="m17 5c3.3 0 6 2.7 6 6s-2.7 6-6 6h-3c-3.3 0-6-2.7-6-6s2.7-6 6-6h3zm-3 11c2.8 0 5-2.2 5-5s-2.2-5-5-5-5 2.2-5 5 2.2 5 5 5zm-3-5c0-1.3 0.8-2.4 2-2.8v5.6c-1.2-0.4-2-1.5-2-2.8zm4-2.8c1.2 0.4 2 1.5 2 2.8s-0.8 2.4-2 2.8v-5.6z" fill="#fff"/></g></g></g></svg>
