<?xml version="1.0" encoding="UTF-8"?>
<svg version="1.1" viewBox="0 0 32 22" xmlns="http://www.w3.org/2000/svg" xmlns:xlink="http://www.w3.org/1999/xlink"><defs><polygon id="a" points="2.7105e-20 -2e-4 2.7105e-20 4.9998 32 4.9998 32 -2e-4"/></defs><g fill="none" fill-rule="evenodd"><g transform="translate(-162 -10)"><g transform="translate(162 10)"><path d="m32 20c0 1.1-0.9 2-2 2h-28c-1.1 0-2-0.9-2-2v-18c0-1.1 0.9-2 2-2h28c1.1 0 2 0.9 2 2v18z" fill="#EBEBEB"/><path d="m9 9.8999c-0.6-0.2-0.7-0.3-0.7-0.6s0.3-0.5 0.7-0.5c0.3 0 0.5 0.1 0.8 0.4l0.5-0.6c-0.4-0.4-0.9-0.6-1.5-0.6-0.9 0-1.5 0.6-1.5 1.4 0 0.7 0.3 1 1.2 1.3 0.4 0.1 0.6 0.2 0.7 0.3 0.2 0.1 0.3 0.3 0.3 0.5 0 0.4-0.3 0.7-0.8 0.7s-0.8-0.2-1.1-0.6l-0.6 0.5c0.5 0.6 1 0.9 1.7 0.9 1 0 1.7-0.6 1.7-1.6 0.1-0.7-0.2-1.1-1.4-1.5" fill="#231F20"/><path d="m17.5 8c1.381 0 2.5 1.119 2.5 2.5s-1.119 2.5-2.5 2.5-2.5-1.119-2.5-2.5 1.119-2.5 2.5-2.5" fill="#FF8400"/><g transform="translate(0 8)"><mask id="b" fill="white"><use xlink:href="#a"/></mask><path d="m29.3 2.2998h-0.3v-1.5h0.3c0.7 0 1.101 0.3 1.101 0.7 0 0.5-0.401 0.8-1.101 0.8zm0.9 0.6c0.8-0.1 1.3-0.7 1.3-1.4 0-0.9-0.7-1.5-2-1.5h-1.5v5h1v-2h0.1l1.5 2h1.4l-1.8-2.1zm-7.5-2.9l-1 3.3-1-3.3h-1.1l1.6 5h1.1l1.5-5h-1.1zm-8.2 3.6c-0.3 0.2-0.6 0.4-1 0.4-0.8 0-1.5-0.7-1.5-1.5s0.7-1.5 1.5-1.5c0.4 0 0.7 0.2 1 0.4v-1.2c-0.3-0.1-0.6-0.2-1-0.2-1.4 0-2.5 1.1-2.5 2.5s1.1 2.5 2.5 2.5c0.4 0 0.7-0.099 1-0.2v-1.2zm12.5-2.6v-1h-3v5h3v-1h-2v-1h2v-1h-2v-1h2zm-22 4h1v-5h-1v5zm-3.5-5h-1.5v5h1.5c1.4 0 2.5-1.1 2.5-2.5s-1.1-2.5-2.5-2.5zm0 1c0.8 0 1.5 0.7 1.5 1.5s-0.7 1.5-1.5 1.5h-0.5v-3h0.5z" fill="#231F20" mask="url(#b)"/></g><path d="m12 22l20-7v5c0 1.1-0.9 2-2 2h-18z" fill="#FF8400"/></g></g></g></svg>
