<?xml version="1.0" encoding="UTF-8"?>
<svg version="1.1" viewBox="0 0 32 22" xmlns="http://www.w3.org/2000/svg"><g fill="none" fill-rule="evenodd"><g transform="translate(-48 -10)"><g transform="translate(48 10)"><path d="m32 20c0 1.1-0.9 2-2 2h-28c-1.1 0-2-0.9-2-2v-18c0-1.1 0.9-2 2-2h28c1.1 0 2 0.9 2 2v18z" fill="#23394B"/><path d="m16 6.5c-1.1-1-2.5-1.5-4-1.5-3.3 0-6 2.7-6 6s2.7 6 6 6c1.5 0 2.9-0.6 4-1.5v-9z" fill="#ED0006"/><path d="m20 5c-1.5 0-2.9 0.6-4 1.5v8.9c1.1 1 2.5 1.5 4 1.5 3.3 0 6-2.7 6-6s-2.7-5.9-6-5.9" fill="#F9A001"/><path d="m14 11c0 1.8 0.8 3.4 2 4.5 1.2-1.1 2-2.7 2-4.5s-0.8-3.4-2-4.5c-1.2 1.1-2 2.7-2 4.5" fill="#FF5E00"/></g></g></g></svg>
