<?xml version="1.0" encoding="UTF-8"?>
<svg width="100" height="52.596" version="1.1" viewBox="0 0 435.35933 228.98026" xml:space="preserve" xmlns="http://www.w3.org/2000/svg" xmlns:cc="http://creativecommons.org/ns#" xmlns:dc="http://purl.org/dc/elements/1.1/" xmlns:rdf="http://www.w3.org/1999/02/22-rdf-syntax-ns#"><metadata><rdf:RDF><cc:Work rdf:about=""><dc:format>image/svg+xml</dc:format><dc:type rdf:resource="http://purl.org/dc/dcmitype/StillImage"/><dc:title/></cc:Work></rdf:RDF></metadata><defs><clipPath id="a"><path d="M 0,595.28 H 841.89 V 0 H 0 Z"/></clipPath></defs><g transform="matrix(1.3333 0 0 -1.3333 -344.37 511.6)"><g clip-path="url(#a)"><g transform="translate(328.35 352.8)"><path d="m0 0c-25.202 0-45.711-20.503-45.711-45.708 0-25.202 20.509-45.708 45.711-45.708h190.52c25.205 0 45.708 20.506 45.708 45.708 0 25.205-20.503 45.708-45.708 45.708zm190.52-95.311h-190.52c-27.349 0-49.603 22.254-49.603 49.603 0 27.352 22.254 49.603 49.603 49.603h190.52c27.351 0 49.602-22.251 49.602-49.603 0-27.349-22.251-49.603-49.602-49.603" fill="#cfcfcf"/></g><g transform="translate(496.02 314.58)"><path d="m0 0c-3.794 0-6.875 3.071-6.875 6.868 0 3.8 3.081 6.874 6.875 6.874 3.793 0 6.874-3.074 6.874-6.874 0-3.797-3.081-6.868-6.874-6.868m0 20.266c-7.396 0-13.396-5.997-13.396-13.398 0-7.395 6-13.389 13.396-13.389 7.4 0 13.392 5.994 13.392 13.389 0 7.401-5.992 13.398-13.392 13.398" fill="#1d1d1b"/></g><g transform="translate(434.58 314.58)"><path d="m0 0c-3.791 0-6.868 3.071-6.868 6.868 0 3.8 3.077 6.874 6.868 6.874 3.8 0 6.874-3.074 6.874-6.874 0-3.797-3.074-6.868-6.874-6.868m0 20.266c-7.392 0-13.389-5.997-13.389-13.398 0-7.395 5.997-13.389 13.389-13.389 7.401 0 13.397 5.994 13.397 13.389 0 7.401-5.996 13.398-13.397 13.398" fill="#1d1d1b"/></g><g transform="translate(481.76 314.21)"><path d="m0 0c-0.85-0.247-2.144-0.489-2.636-0.489-2.291 0-2.79 0.789-2.79 2.979v12.372h5.48v5.177h-5.48v7.306h-6.157l-1.298-7.306h-4.292v-7e-3h-0.348c-3.512-0.015-6.16-2.156-7.858-5.511l-2.143 5.518h-4.415v-25.705h7.552v11.183c0 5.637 3.326 9.238 7.275 9.345h4.129v-12.776c0-6.013 3.083-8.25 8.108-8.25 2.588 0 4.573 0.546 5.763 0.943z" fill="#1d1d1b"/></g><g transform="translate(518.56 326.11)"><path d="m0 0v-17.567h-7.344v25.697h4.456l1.493-3.926" fill="#1d1d1b"/></g><g transform="translate(517.13 330.3)"><path d="m0 0c2.232 2.588 5.287 4.548 8.863 4.548 6.116 0 8.632-4.873 8.632-9.396v-16.904h-7.558v16.687c0 2.202-1.834 3.398-3.826 3.398-2.118 0-3.478-1.211-4.674-2.505" fill="#1d1d1b"/></g><g transform="translate(391.74 343.55)"><path d="m0 0h8.417l11.552-22.008v22.008h6.972v-35.009h-7.622l-12.347 24.202v-24.202h-6.972z" fill="#1d1d1b"/></g><g transform="translate(556.93 356.69)"><path d="m0 0v-1.256h-1.83v-6.167h-1.434v6.167h-1.798v1.256z" fill="#b1b1b1"/></g><g transform="translate(557.96 349.27)"><path d="m0 0v7.42h1.935l1.288-4.86 1.309 4.86h1.953v-7.42h-1.179v5.804h-0.033l-1.499-5.804h-1.05l-1.512 5.804h-0.032v-5.804z" fill="#b1b1b1"/></g><g transform="translate(389.64 277.51)"><path d="m0 0 1.748 2.718c1.414-1.048 3.545-2.024 6.142-2.024 2.525 0 4.081 1.146 4.081 3.131 0 2.285-1.966 2.888-5.201 4.019-2.904 1.015-5.757 2.48-5.757 6.59 0 3.853 3.039 5.949 7.127 5.949 2.714 0 4.718-0.533 6.328-1.484l-1.395-2.89c-1.354 0.703-2.97 1.179-4.87 1.179-2.276 0-3.642-0.858-3.642-2.663 0-2.121 1.584-2.661 4.56-3.639 3.103-1.004 6.521-2.44 6.521-6.997 0-3.848-2.755-6.392-7.695-6.392-3.671 0-6.363 1.266-7.947 2.503" fill="#b1b1b1"/></g><g transform="translate(411.9 297.55)"><path d="m0 0h13.23v-3.071h-9.464v-6.073h7.476v-3.011h-7.476v-7.019h10.043v-3.071h-13.809z" fill="#b1b1b1"/></g><g transform="translate(431.1 286.41)"><path d="m0 0c0 6.489 3.105 11.485 9.311 11.485 2.78 0 4.973-0.877 6.517-2.682l-2.193-2.541c-1.329 1.3-2.453 1.937-4.265 1.937-3.641 0-5.321-2.979-5.321-8.483 0-5.17 1.774-7.786 5.356-7.786 1.989 0 3.387 1.045 4.612 2.341l2.215-2.468c-1.613-1.903-3.629-3.2-6.862-3.2-6.394 0-9.37 4.876-9.37 11.397" fill="#b1b1b1"/></g><g transform="translate(453.46 283.82)"><path d="m0 0v13.733h3.794v-14.348c0-3.055 0.758-5.056 3.983-5.056 3.198 0 3.993 2.001 3.993 5.056v14.348h3.832v-13.733c0-5.514-2.122-8.806-7.853-8.806-5.637 0-7.749 3.292-7.749 8.806" fill="#b1b1b1"/></g><g transform="translate(483.73 287.64)"><path d="m0 0c2.821 0 4.273 0.919 4.273 3.488 0 2.471-1.48 3.349-4.049 3.349h-3.579v-6.837zm8.544-12.337h-4.113l-4.27 9.434h-3.516v-9.434h-3.765v22.248h7.256c4.491 0 7.998-1.613 7.998-6.489 0-3.327-1.992-4.993-4.214-5.789z" fill="#b1b1b1"/></g><g transform="translate(498.72 297.55)"><path d="m0 0h13.228v-3.071h-9.465v-6.073h7.464v-3.011h-7.464v-7.019h10.033v-3.071h-13.796z" fill="#b1b1b1"/></g><g transform="translate(524.21 278.37)"><path d="m0 0c5.191 0 6.966 2.399 6.966 8.134 0 5.031-1.393 7.97-6.499 7.97h-2.024v-16.104zm-5.338 19.177h5.556c7.249 0 10.737-3.926 10.737-11.043 0-7.253-3.548-11.204-10.545-11.204h-5.748z" fill="#b1b1b1"/></g><g transform="translate(328.12 343.68)"><path d="m0 0c-9.765 0-18.956-3.809-25.875-10.718-6.908-6.912-10.718-16.103-10.718-25.871 0-9.766 3.81-18.953 10.718-25.872 6.916-6.906 16.106-10.715 25.875-10.718 9.769 3e-3 18.956 3.812 25.875 10.721 6.902 6.916 10.708 16.103 10.715 25.869-7e-3 9.768-3.813 18.959-10.722 25.874-6.915 6.906-16.102 10.715-25.868 10.715m0-90.106c-29.507 0-53.52 24.012-53.52 53.517 0 29.51 24.013 53.516 53.52 53.516 29.504 0 53.514-24.006 53.52-53.516-6e-3 -29.505-24.016-53.517-53.52-53.517" fill="#fcc200"/></g><path d="m390.59 368.85h-4.172v-4.172h4.172z" fill="#fcc200"/><path d="m390.59 377.17h-4.172v-4.182h4.172z" fill="#fcc200"/><path d="m378.58 364.71h-3.898v-4.075h3.898z" fill="#fcc200"/><path d="m370.89 356.71h-3.93v-3.898h3.93z" fill="#1d1d1b"/><path d="m382.95 360.64h-4.368v-3.929h4.368z" fill="#1d1d1b"/><path d="m363.04 356.71h3.917v3.734h-3.917z" fill="#1d1d1b"/><path d="m378.58 356.71h-3.898v-3.898h3.898z" fill="#1d1d1b"/><path d="m386.42 372.99h-4.128v-4.135h4.128z" fill="#1d1d1b"/><path d="m382.29 368.85h-7.613v-4.144h7.613z" fill="#1d1d1b"/><path d="m370.89 356.71h3.793v8.001h-3.793z" fill="#1d1d1b"/><g transform="translate(370.89 352.81)"><path d="m0 0v-3.926h-3.93v3.926h-6.52v-2.828h-3.497v-3.487h3.904v-3.889h-3.904v3.889h-4.148v-6.104h-3.92v-3.892h-2.604v-3.911h-2.859c-3.213-4.778-11.274-19.682-13.708-25.748-8.777 12.218-15.594 17.059-20.966 18.811-2.891 0.871-6.382-2.282-1.572-7.244 11.047-12.148 14.522-22.207 17.88-30.233 1.78-4.229 9.743-4.886 11.34-0.577 3.4 9.105 8.326 19.338 14.169 27.739v4.353h3.114v3.926h3.274v4.551h3.916v4.388h-3.957v3.989h3.957v-3.989h3.873l-9e-3 3.945h3.102v4.766h3.497v3.276h3.361v8.269z" fill="#1d1d1b"/></g><g transform="translate(305.63 228.81)"><path d="m0 0v0.05c0 2.466-1.673 4.091-3.658 4.091-1.986 0-3.731-1.648-3.731-4.091v-0.05c0-2.472 1.745-4.094 3.731-4.094 2.01 0 3.658 1.575 3.658 4.094m-10.242 6.416h2.926v-2.133c0.943 1.335 2.275 2.402 4.337 2.402 3.026 0 5.955-2.402 5.955-6.635v-0.05c0-4.235-2.907-6.635-5.955-6.635-2.106 0-3.441 1.068-4.337 2.254v-5.864h-2.926z" fill="#b1b1b1"/></g><g transform="translate(321.7 228.76)"><path d="m0 0v0.048c0 2.253-1.622 4.115-3.923 4.115-2.348 0-3.848-1.84-3.848-4.068v-0.047c0-2.226 1.623-4.116 3.898-4.116 2.371 0 3.873 1.862 3.873 4.068m-10.703 0v0.048c0 3.654 2.904 6.684 6.83 6.684 3.924 0 6.802-2.979 6.802-6.637v-0.047c0-3.633-2.904-6.656-6.852-6.656-3.898 0-6.78 2.975-6.78 6.608" fill="#b1b1b1"/></g><g transform="translate(326.05 235.22)"><path d="m0 0h3.001l2.567-8.768 2.834 8.819h2.496l2.857-8.819 2.613 8.768h2.929l-4.188-12.88h-2.617l-2.856 8.742-2.882-8.742h-2.616z" fill="#b1b1b1"/></g><g transform="translate(356.32 229.73)"><path d="m0 0c-0.192 1.887-1.307 3.364-3.244 3.364-1.793 0-3.049-1.383-3.318-3.364zm-9.469-0.944v0.048c0 3.654 2.592 6.656 6.25 6.656 4.068 0 6.126-3.195 6.126-6.878 0-0.265-0.022-0.533-0.051-0.823h-9.392c0.315-2.08 1.789-3.246 3.68-3.246 1.429 0 2.446 0.535 3.462 1.525l1.72-1.525c-1.209-1.451-2.881-2.395-5.229-2.395-3.706 0-6.566 2.689-6.566 6.638" fill="#b1b1b1"/></g><g transform="translate(362.28 235.22)"><path d="m0 0h2.932v-2.881c0.798 1.912 2.276 3.219 4.523 3.124v-3.099h-0.167c-2.566 0-4.356-1.673-4.356-5.063v-4.87h-2.932z" fill="#b1b1b1"/></g><g transform="translate(380.9 229.73)"><path d="m0 0c-0.192 1.887-1.31 3.364-3.245 3.364-1.792 0-3.052-1.383-3.317-3.364zm-9.469-0.944v0.048c0 3.654 2.592 6.656 6.25 6.656 4.065 0 6.126-3.195 6.126-6.878 0-0.265-0.022-0.533-0.051-0.823h-9.393c0.316-2.08 1.793-3.246 3.681-3.246 1.429 0 2.446 0.535 3.462 1.525l1.717-1.525c-1.209-1.451-2.879-2.395-5.227-2.395-3.705 0-6.565 2.689-6.565 6.638" fill="#b1b1b1"/></g><g transform="translate(396.53 228.81)"><path d="m0 0v0.05c0 2.466-1.745 4.091-3.702 4.091-2.011 0-3.683-1.55-3.683-4.091v-0.05c0-2.472 1.695-4.094 3.683-4.094 1.957 0 3.702 1.648 3.702 4.094m-10.336 0v0.05c0 4.233 2.878 6.635 5.93 6.635 2.105 0 3.437-1.067 4.359-2.254v6.878h2.932v-17.678h-2.932v2.134c-0.944-1.332-2.276-2.4-4.359-2.4-3.005 0-5.93 2.4-5.93 6.635" fill="#b1b1b1"/></g><g transform="translate(420.56 228.81)"><path d="m0 0v0.05c0 2.466-1.672 4.091-3.655 4.091-1.988 0-3.73-1.648-3.73-4.091v-0.05c0-2.472 1.742-4.094 3.73-4.094 2.005 0 3.655 1.575 3.655 4.094m-7.316-4.381v-1.988h-2.926v17.678h2.926v-7.026c0.944 1.335 2.275 2.402 4.337 2.402 3.026 0 5.959-2.402 5.959-6.635v-0.05c0-4.235-2.91-6.635-5.959-6.635-2.105 0-3.438 1.068-4.337 2.254" fill="#b1b1b1"/></g><g transform="translate(425.54 219.27)"><path d="m0 0 0.991 2.178c0.533-0.291 1.112-0.484 1.72-0.484 0.824 0 1.332 0.364 1.812 1.478l-5.325 12.789h3.125l3.633-9.494 3.32 9.494h3.046l-5.085-13.152c-1.012-2.614-2.155-3.585-4.214-3.585-1.23 0-2.129 0.29-3.023 0.776" fill="#b1b1b1"/></g><g transform="translate(446.52 239.39)"><path d="m0 0h3.289l5.113-13.029 5.085 13.029h3.222l-7.048-17.075h-2.613z" fill="#a40344"/></g><g transform="translate(473.3 229.73)"><path d="m0 0c-0.192 1.887-1.307 3.364-3.244 3.364-1.79 0-3.049-1.383-3.318-3.364zm-9.466-0.944v0.048c0 3.654 2.589 6.656 6.246 6.656 4.069 0 6.127-3.195 6.127-6.878 0-0.265-0.022-0.533-0.051-0.823h-9.389c0.312-2.08 1.789-3.246 3.677-3.246 1.432 0 2.446 0.535 3.461 1.525l1.721-1.525c-1.212-1.451-2.882-2.395-5.229-2.395-3.706 0-6.563 2.689-6.563 6.638" fill="#a40344"/></g><g transform="translate(479.26 235.22)"><path d="m0 0h2.932v-2.881c0.798 1.912 2.276 3.219 4.526 3.124v-3.099h-0.167c-2.569 0-4.359-1.673-4.359-5.063v-4.87h-2.932z" fill="#a40344"/></g><path d="m489.23 235.22h2.929v-12.789h-2.929zm-0.12 4.747h3.147v-2.783h-3.147z" fill="#a40344"/><g transform="translate(495.2 224.91)"><path d="m0 0 1.792 2.134c1.623-1.408 3.245-2.2 5.354-2.2 1.839 0 3 0.845 3 2.124v0.053c0 1.209-0.677 1.866-3.825 2.588-3.61 0.871-5.643 1.936-5.643 5.064v0.047c0 2.903 2.422 4.914 5.789 4.914 2.468 0 4.431-0.751 6.151-2.127l-1.597-2.254c-1.531 1.136-3.055 1.745-4.605 1.745-1.742 0-2.758-0.9-2.758-2.01v-0.054c0-1.303 0.773-1.887 4.021-2.661 3.582-0.874 5.444-2.152 5.444-4.965v-0.044c0-3.174-2.493-5.065-6.054-5.065-2.588 0-5.034 0.899-7.069 2.711" fill="#a40344"/></g><path d="m511.68 235.22h2.929v-12.789h-2.929zm-0.123 4.747h3.149v-2.783h-3.149z" fill="#a40344"/><g transform="translate(528.01 229.44)"><path d="m0 0v0.051c0 2.104-1.72 3.534-3.752 3.534-2.036 0-3.633-1.404-3.633-3.513v-0.044c0-2.111 1.622-3.538 3.633-3.538 2.032 0 3.752 1.452 3.752 3.51m-9.708-9.396 1.089 2.203c1.354-0.846 2.808-1.354 4.555-1.354 2.613 0 4.04 1.354 4.04 3.923v0.991c-1.064-1.379-2.396-2.348-4.501-2.348-3.005 0-5.814 2.231-5.814 5.981v0.051c0 3.777 2.831 6.003 5.814 6.003 2.152 0 3.484-0.992 4.478-2.178v1.912h2.929v-10.169c0-2.155-0.556-3.753-1.622-4.819-1.161-1.165-2.954-1.724-5.258-1.724-2.103 0-4.065 0.537-5.71 1.528" fill="#a40344"/></g><g transform="translate(534.66 235.22)"><path d="m0 0h2.929v-1.981c0.824 1.209 2.01 2.247 3.993 2.247 2.888 0 4.554-1.939 4.554-4.914v-8.141h-2.932v7.269c0 1.986-0.988 3.124-2.733 3.124-1.695 0-2.882-1.186-2.882-3.171v-7.222h-2.929z" fill="#a40344"/></g></g></g></svg>
