<?xml version="1.0" encoding="UTF-8"?>
<svg version="1.1" viewBox="0 0 32 22" xmlns="http://www.w3.org/2000/svg"><defs><linearGradient id="a" x1="100%" x2="0%" y1="44.886%" y2="44.886%"><stop stop-color="#054CA4" offset="0"/><stop stop-color="#201D66" offset="1"/></linearGradient></defs><g fill="none" fill-rule="evenodd"><g transform="translate(-10 -10)"><g transform="translate(10 10)"><path d="m2 0c-1.1 0-2 0.9-2 2v18c0 1.1 0.9 2 2 2h28c1.1 0 2-0.9 2-2v-18c0-1.1-0.9-2-2-2h-28z" fill="url(#a)"/><path d="m27.3 7l1.7 8h-1.901l-0.299-1h-2.701l-0.399 1h-2.2l3.099-7.5c0.201-0.3 0.5-0.5 0.901-0.5h1.8zm-10.9 2.6001c0.1-1.6 1.5-2.7 3.6-2.8 0.799 0 1.5 0.2 2 0.4l-0.5 1.8c-1-0.5-1.8-0.4-2.1-0.4-0.601 0.1-0.9 0.4-0.9 0.7-0.1 0.9 2.9 1.1 2.9 3.2 0 1.7-1.5 2.8-3.7 2.8-0.901 0-1.8-0.2-2.3-0.4l0.399-1.8c0.5 0.2 1.101 0.5 2.201 0.5 0.599 0 1.299-0.3 1.299-0.8 0-0.3-0.299-0.6-1.099-1s-1.8-1-1.8-2.2zm-2.601-2.6h2.101l-1.8 8h-2.1l1.799-8zm-3.099 0h2.099l-3.399 8h-2.2l-1.6-6.4c-0.1-0.4-0.2-0.5-0.5-0.7-0.5-0.3-1.4-0.5-2.1-0.7v-0.2h3.6c0.5 0 0.9 0.3 1 0.8l0.9 4.6 2.2-5.4zm14 4.9999h1.7l-0.6-3-1.1 3z" fill="#fff"/></g></g></g></svg>
